<?xml version="1.0" encoding="UTF-8"?>
<svg width="267px" height="415px" viewBox="0 0 267 415" version="1.1" xmlns="http://www.w3.org/2000/svg" xmlns:xlink="http://www.w3.org/1999/xlink">
    <!-- Generator: Sketch 52.5 (67469) - http://www.bohemiancoding.com/sketch -->
    <title>Group 5</title>
    <desc>Created with Sketch.</desc>
    <defs>
        <path d="M134.887144,115.218979 L116.25078,115.218979 L116.25078,86.5046935 L134.887144,86.5046935 L134.887144,115.218979 Z M116.25078,86.5814071 C118.866914,86.5814071 121.035064,86.5694616 125.533201,86.5358485 C154.793338,86.3171968 165.691878,87.142258 177.792543,92.4718598 C195.6753,100.348119 205.131899,117.517529 205.131899,143.933265 C205.131899,170.349001 195.6753,187.518411 177.792543,195.39467 C165.691878,200.724272 154.793338,201.549333 125.533201,201.330681 C124.669029,201.324231 124.295493,201.321474 123.802723,201.317945 L123.944629,172.642524 C124.44001,172.646072 124.815735,172.648845 125.681277,172.655306 C151.60749,172.849044 161.315955,172.114076 169.596847,168.46685 C177.855564,164.829391 181.294051,158.58647 181.294051,143.933265 C181.294051,129.280059 177.855564,123.037139 169.596847,119.39968 C161.315955,115.752454 151.60749,115.017486 125.681277,115.211224 C121.134915,115.245198 118.931756,115.257336 116.25078,115.257336 L116.25078,86.5814071 Z M134.887144,115.142878 C130.680444,115.142878 127.203167,115.154882 120.000878,115.188605 C74.8682325,115.399927 58.0802001,114.603593 40.5400762,109.763031 C14.7900175,102.656766 0.131899322,85.981368 0.131899322,57.7904078 C0.131899322,29.5994476 14.7900175,12.9240494 40.5400762,5.8177846 C58.0802001,0.977222245 74.8682325,0.180888215 120.000878,0.392210348 C127.203167,0.425933232 130.680444,0.437937365 134.887144,0.437937365 L134.887144,29.1141726 C130.639773,29.1141726 127.140536,29.1020926 119.907998,29.0682281 C76.9644213,28.8671557 60.8641175,29.6308676 45.8757163,33.767229 C29.9045475,38.1748055 23.9823851,44.9119879 23.9823851,57.7904078 C23.9823851,70.6688277 29.9045475,77.4060101 45.8757163,81.8135866 C60.8641175,85.949948 76.9644213,86.7136598 119.907998,86.5125875 C127.140536,86.4787229 130.639773,86.466643 134.887144,86.466643 L134.887144,115.142878 Z" id="path-1"></path>
        <polygon id="path-3" points="-8.21639664 64.0778807 233.904832 64.6936722 234.016794 108.625243 -8.10443454 108.009451"></polygon>
    </defs>
    <g id="illustrations" stroke="none" stroke-width="1" fill="none" fill-rule="evenodd">
        <g id="Home" transform="translate(-274.000000, -176.000000)">
            <g id="Group-5" transform="translate(202.000000, 176.000000)">
                <g id="Path-2" transform="translate(175.936669, 306.534341) rotate(70.000000) translate(-175.936669, -306.534341) translate(37.936669, 169.534341)">
                    <g id="Mask" transform="translate(137.626712, 136.752680) rotate(207.000000) translate(-137.626712, -136.752680) translate(34.626712, 35.752680)">
                        <mask id="mask-2" fill="white">
                            <use xlink:href="#path-1"></use>
                        </mask>
                        <use fill="#FFFEFA" fill-rule="nonzero" transform="translate(102.631899, 100.861836) scale(-1, 1) translate(-102.631899, -100.861836) " xlink:href="#path-1"></use>
                        <rect id="Rectangle" fill="#185D58" mask="url(#mask-2)" x="162.423455" y="196.158276" width="60" height="66"></rect>
                        <rect id="Rectangle" fill="#185D58" mask="url(#mask-2)" x="140.713845" y="-31.7178703" width="82" height="161"></rect>
                    </g>
                </g>
                <g id="Group-4" transform="translate(295.775915, 77.775915) rotate(290.000000) translate(-295.775915, -77.775915) translate(239.775915, 21.775915)">
                    <circle id="Oval" fill="#AF2551" transform="translate(56.000000, 56.000000) rotate(160.000000) translate(-56.000000, -56.000000) " cx="56" cy="56" r="43.1755725"></circle>
                    <path d="M32.2903192,38.3592097 C30.1604546,38.3592097 28.4338582,36.5683487 28.4338582,34.3592097 C28.4338582,32.1500707 30.1604546,30.3592097 32.2903192,30.3592097 L57.5773973,30.3592097 C59.7072619,30.3592097 61.4338582,32.1500707 61.4338582,34.3592097 C61.4338582,36.5683487 59.7072619,38.3592097 57.5773973,38.3592097 L32.2903192,38.3592097 Z" id="Line-4" fill="#07154C" fill-rule="nonzero"></path>
                    <path d="M6.56969606,53.4737573 C4.43983151,53.4737573 2.71323515,51.6828963 2.71323515,49.4737573 C2.71323515,47.2646183 4.43983151,45.4737573 6.56969606,45.4737573 L31.8567742,45.4737573 C33.9866388,45.4737573 35.7132352,47.2646183 35.7132352,49.4737573 C35.7132352,51.6828963 33.9866388,53.4737573 31.8567742,53.4737573 L6.56969606,53.4737573 Z" id="Line-4" fill="#FFFFFF" fill-rule="nonzero"></path>
                    <path d="M41.2485041,80.9943 C39.1186396,80.9943 37.3920432,79.203439 37.3920432,76.9943 C37.3920432,74.785161 39.1186396,72.9943 41.2485041,72.9943 L66.5355823,72.9943 C68.6654469,72.9943 70.3920432,74.785161 70.3920432,76.9943 C70.3920432,79.203439 68.6654469,80.9943 66.5355823,80.9943 L41.2485041,80.9943 Z" id="Line-4" fill="#07154C" fill-rule="nonzero"></path>
                    <path d="M57.8278533,64.6809564 C55.6979888,64.6809564 53.9713924,62.8900954 53.9713924,60.6809564 C53.9713924,58.4718174 55.6979888,56.6809564 57.8278533,56.6809564 L83.1149315,56.6809564 C85.2447961,56.6809564 86.9713924,58.4718174 86.9713924,60.6809564 C86.9713924,62.8900954 85.2447961,64.6809564 83.1149315,64.6809564 L57.8278533,64.6809564 Z" id="Line-4" fill="#07154C" fill-rule="nonzero"></path>
                </g>
                <g id="Path-2" transform="translate(181.500000, 113.000000) rotate(90.000000) translate(-181.500000, -113.000000) translate(68.500000, 26.500000)">
                    <mask id="mask-4" fill="white">
                        <use xlink:href="#path-3"></use>
                    </mask>
                    <use id="Mask" fill="#FFE0E0" transform="translate(112.900199, 86.351562) rotate(-34.000000) translate(-112.900199, -86.351562) " xlink:href="#path-3"></use>
                    <polyline stroke="#AF2551" stroke-width="7" stroke-linecap="round" stroke-linejoin="round" mask="url(#mask-4)" points="30.4080708 196 20 82.7158833 79.8023053 163.580645 67.0232034 41.1382907 170.9031 93.5561051 143.917321 -5 225 53.3548387"></polyline>
                </g>
                <circle id="Oval" fill="#EFC138" cx="266.5" cy="273.5" r="25.5"></circle>
            </g>
        </g>
    </g>
</svg>