<?xml version="1.0" encoding="UTF-8"?>
<svg width="87px" height="92px" viewBox="0 0 87 92" version="1.1" xmlns="http://www.w3.org/2000/svg" xmlns:xlink="http://www.w3.org/1999/xlink">
    <!-- Generator: Sketch 52.5 (67469) - http://www.bohemiancoding.com/sketch -->
    <title>Group 4</title>
    <desc>Created with Sketch.</desc>
    <g id="illustrations" stroke="none" stroke-width="1" fill="none" fill-rule="evenodd">
        <g id="Tablet" transform="translate(-503.000000, -498.000000)">
            <g id="Group-4" transform="translate(546.775915, 541.775915) rotate(290.000000) translate(-546.775915, -541.775915) translate(490.775915, 485.775915)">
                <circle id="Oval" fill="#AF2551" transform="translate(56.000000, 56.000000) rotate(160.000000) translate(-56.000000, -56.000000) " cx="56" cy="56" r="43.1755725"></circle>
                <path d="M32.2903192,38.3592097 C30.1604546,38.3592097 28.4338582,36.5683487 28.4338582,34.3592097 C28.4338582,32.1500707 30.1604546,30.3592097 32.2903192,30.3592097 L57.5773973,30.3592097 C59.7072619,30.3592097 61.4338582,32.1500707 61.4338582,34.3592097 C61.4338582,36.5683487 59.7072619,38.3592097 57.5773973,38.3592097 L32.2903192,38.3592097 Z" id="Line-4" fill="#07154C" fill-rule="nonzero"></path>
                <path d="M6.56969606,53.4737573 C4.43983151,53.4737573 2.71323515,51.6828963 2.71323515,49.4737573 C2.71323515,47.2646183 4.43983151,45.4737573 6.56969606,45.4737573 L31.8567742,45.4737573 C33.9866388,45.4737573 35.7132352,47.2646183 35.7132352,49.4737573 C35.7132352,51.6828963 33.9866388,53.4737573 31.8567742,53.4737573 L6.56969606,53.4737573 Z" id="Line-4" fill="#FFFFFF" fill-rule="nonzero"></path>
                <path d="M41.2485041,80.9943 C39.1186396,80.9943 37.3920432,79.203439 37.3920432,76.9943 C37.3920432,74.785161 39.1186396,72.9943 41.2485041,72.9943 L66.5355823,72.9943 C68.6654469,72.9943 70.3920432,74.785161 70.3920432,76.9943 C70.3920432,79.203439 68.6654469,80.9943 66.5355823,80.9943 L41.2485041,80.9943 Z" id="Line-4" fill="#07154C" fill-rule="nonzero"></path>
                <path d="M57.8278533,64.6809564 C55.6979888,64.6809564 53.9713924,62.8900954 53.9713924,60.6809564 C53.9713924,58.4718174 55.6979888,56.6809564 57.8278533,56.6809564 L83.1149315,56.6809564 C85.2447961,56.6809564 86.9713924,58.4718174 86.9713924,60.6809564 C86.9713924,62.8900954 85.2447961,64.6809564 83.1149315,64.6809564 L57.8278533,64.6809564 Z" id="Line-4" fill="#07154C" fill-rule="nonzero"></path>
            </g>
        </g>
    </g>
</svg>