<?xml version="1.0" encoding="UTF-8"?>
<svg width="226px" height="70px" viewBox="0 0 226 70" version="1.1" xmlns="http://www.w3.org/2000/svg" xmlns:xlink="http://www.w3.org/1999/xlink">
    <!-- Generator: Sketch 52.5 (67469) - http://www.bohemiancoding.com/sketch -->
    <title>Group 5</title>
    <desc>Created with Sketch.</desc>
    <defs>
        <polygon id="path-1" points="1.44344678 9.0853318 161.425536 4.99551773 161.22693 20.3116876 1.24484127 24.4015017"></polygon>
    </defs>
    <g id="illustrations" stroke="none" stroke-width="1" fill="none" fill-rule="evenodd">
        <g id="home" transform="translate(-31.000000, -350.000000)">
            <g id="Group-5" transform="translate(30.000000, 350.000000)">
                <circle id="Oval" fill="#EFC138" cx="149.5" cy="11.5" r="11.5"></circle>
                <g id="Group-11" transform="translate(0.000000, 38.000000)">
                    <mask id="mask-2" fill="white">
                        <use xlink:href="#path-1"></use>
                    </mask>
                    <use id="Mask" fill="#FFE0E0" transform="translate(81.335188, 14.698510) rotate(177.000000) translate(-81.335188, -14.698510) " xlink:href="#path-1"></use>
                    <polyline id="Path-2" stroke="#AF2551" stroke-width="7" stroke-linecap="round" stroke-linejoin="round" mask="url(#mask-2)" transform="translate(76.814555, 19.429433) rotate(211.000000) translate(-76.814555, -19.429433) " points="31.3364987 102.878431 7.01251908 -1.64758161 61.1676197 80.3316946 33.8026569 -32.8596639 114.650466 29.4390525 80.8923364 -64.019565 146.616591 0.474023327"></polyline>
                </g>
                <g id="Group-4" transform="translate(201.395826, 44.395826) rotate(60.000000) translate(-201.395826, -44.395826) translate(168.895826, 11.895826)">
                    <circle id="Oval" fill="#AF2551" transform="translate(32.500000, 32.500000) rotate(160.000000) translate(-32.500000, -32.500000) " cx="32.5" cy="32.5" r="25.0572519"></circle>
                    <path d="M18.7230967,21.3654202 C17.5613524,21.3654202 16.6195726,20.4699897 16.6195726,19.3654202 C16.6195726,18.2608507 17.5613524,17.3654202 18.7230967,17.3654202 L32.5160485,17.3654202 C33.6777928,17.3654202 34.6195726,18.2608507 34.6195726,19.3654202 C34.6195726,20.4699897 33.6777928,21.3654202 32.5160485,21.3654202 L18.7230967,21.3654202 Z" id="Line-4" fill="#07154C" fill-rule="nonzero"></path>
                    <path d="M4.29489351,30.3558013 C3.13314921,30.3558013 2.19136938,29.4603708 2.19136938,28.3558013 C2.19136938,27.2512318 3.13314921,26.3558013 4.29489351,26.3558013 L18.0878452,26.3558013 C19.2495895,26.3558013 20.1913694,27.2512318 20.1913694,28.3558013 C20.1913694,29.4603708 19.2495895,30.3558013 18.0878452,30.3558013 L4.29489351,30.3558013 Z" id="Line-4" fill="#FFFFFF" fill-rule="nonzero"></path>
                    <path d="M25.6775794,47.3199029 C24.5158351,47.3199029 23.5740553,46.4244724 23.5740553,45.3199029 C23.5740553,44.2153334 24.5158351,43.3199029 25.6775794,43.3199029 L39.4705311,43.3199029 C40.6322754,43.3199029 41.5740553,44.2153334 41.5740553,45.3199029 C41.5740553,46.4244724 40.6322754,47.3199029 39.4705311,47.3199029 L25.6775794,47.3199029 Z" id="Line-4" fill="#07154C" fill-rule="nonzero"></path>
                    <path d="M34.7756556,37.5615727 C33.6139113,37.5615727 32.6721315,36.6661422 32.6721315,35.5615727 C32.6721315,34.4570032 33.6139113,33.5615727 34.7756556,33.5615727 L48.5686074,33.5615727 C49.7303517,33.5615727 50.6721315,34.4570032 50.6721315,35.5615727 C50.6721315,36.6661422 49.7303517,37.5615727 48.5686074,37.5615727 L34.7756556,37.5615727 Z" id="Line-4" fill="#07154C" fill-rule="nonzero"></path>
                </g>
            </g>
        </g>
    </g>
</svg>